<?xml version="1.0" encoding="utf-8"?>
<!-- Generator: Adobe Illustrator 16.0.4, SVG Export Plug-In . SVG Version: 6.00 Build 0)  -->
<!DOCTYPE svg PUBLIC "-//W3C//DTD SVG 1.1//EN" "http://www.w3.org/Graphics/SVG/1.1/DTD/svg11.dtd">
<svg version="1.1" id="Layer_1" xmlns="http://www.w3.org/2000/svg" xmlns:xlink="http://www.w3.org/1999/xlink" x="0px" y="0px"
	 width="300px" height="200px" viewBox="0 0 300 200" enable-background="new 0 0 300 200" xml:space="preserve">
<rect fill="#019BCA" width="300" height="200"/>
<g>
	<path fill="#FFFFFF" d="M70.559,89.172c2.516,0,4.476,0.911,5.879,2.735c1.403,1.822,2.105,4.381,2.105,7.674
		c0,3.306-0.71,5.878-2.133,7.719c-1.421,1.842-3.396,2.763-5.924,2.763c-2.552,0-4.532-0.917-5.942-2.752h-0.292l-0.783,2.387
		H60.26V81.334h4.284v6.744c0,0.499-0.024,1.24-0.073,2.225c-0.048,0.984-0.084,1.61-0.109,1.877h0.183
		C65.904,90.175,67.909,89.172,70.559,89.172z M69.447,92.672c-1.726,0-2.968,0.508-3.727,1.522
		c-0.76,1.016-1.153,2.714-1.176,5.095v0.292c0,2.455,0.389,4.232,1.167,5.332c0.777,1.1,2.047,1.649,3.81,1.649
		c1.519,0,2.67-0.601,3.455-1.805c0.784-1.203,1.175-2.94,1.175-5.213C74.15,94.963,72.583,92.672,69.447,92.672z"/>
	<path fill="#FFFFFF" d="M87.803,109.697H83.52V81.334h4.284V109.697z"/>
	<path fill="#FFFFFF" d="M111.812,99.581c0,3.294-0.845,5.863-2.534,7.711c-1.689,1.847-4.041,2.771-7.055,2.771
		c-1.884,0-3.548-0.425-4.995-1.275c-1.446-0.852-2.558-2.072-3.336-3.666c-0.778-1.591-1.167-3.438-1.167-5.54
		c0-3.269,0.838-5.821,2.515-7.656s4.041-2.753,7.091-2.753c2.917,0,5.226,0.938,6.927,2.817
		C110.96,93.866,111.812,96.396,111.812,99.581z M97.137,99.581c0,4.655,1.719,6.981,5.158,6.981c3.403,0,5.104-2.326,5.104-6.981
		c0-4.606-1.713-6.909-5.141-6.909c-1.798,0-3.102,0.596-3.91,1.787C97.54,95.649,97.137,97.357,97.137,99.581z"/>
	<path fill="#FFFFFF" d="M124.863,110.062c-3.051,0-5.368-0.891-6.954-2.671c-1.586-1.78-2.379-4.336-2.379-7.664
		c0-3.392,0.829-5.998,2.488-7.82c1.66-1.824,4.056-2.735,7.191-2.735c2.126,0,4.041,0.396,5.743,1.186l-1.295,3.445
		c-1.811-0.705-3.306-1.057-4.484-1.057c-3.488,0-5.232,2.313-5.232,6.945c0,2.259,0.435,3.958,1.303,5.093
		c0.869,1.138,2.142,1.705,3.819,1.705c1.908,0,3.713-0.474,5.414-1.421v3.736c-0.765,0.449-1.583,0.772-2.452,0.966
		C127.157,109.965,126.103,110.062,124.863,110.062z"/>
	<path fill="#FFFFFF" d="M134.962,84.195c0-0.765,0.209-1.354,0.628-1.769c0.419-0.412,1.018-0.619,1.795-0.619
		c0.753,0,1.34,0.207,1.76,0.619c0.419,0.414,0.628,1.004,0.628,1.769c0,0.729-0.209,1.304-0.628,1.723
		c-0.419,0.42-1.006,0.63-1.76,0.63c-0.778,0-1.376-0.21-1.795-0.63C135.171,85.499,134.962,84.925,134.962,84.195z
		 M139.501,109.697h-4.284v-20.16h4.284V109.697z"/>
	<path fill="#FFFFFF" d="M155.85,110.062c-2.551,0-4.531-0.917-5.94-2.752h-0.254c0.17,1.701,0.254,2.733,0.254,3.098v8.258h-4.284
		V89.537h3.463c0.098,0.376,0.297,1.275,0.602,2.697h0.218c1.336-2.041,3.342-3.062,6.015-3.062c2.516,0,4.475,0.911,5.879,2.735
		c1.403,1.822,2.105,4.381,2.105,7.674c0,3.294-0.716,5.863-2.144,7.711C160.337,109.139,158.366,110.062,155.85,110.062z
		 M154.812,92.672c-1.7,0-2.943,0.498-3.727,1.496c-0.783,0.995-1.176,2.588-1.176,4.775v0.638c0,2.455,0.389,4.232,1.166,5.332
		c0.777,1.1,2.048,1.649,3.811,1.649c1.482,0,2.625-0.607,3.425-1.823c0.803-1.214,1.205-2.946,1.205-5.194
		c0-2.261-0.399-3.971-1.196-5.132C157.524,93.252,156.354,92.672,154.812,92.672z"/>
	<path fill="#FFFFFF" d="M177.69,110.062c-3.136,0-5.589-0.913-7.356-2.744c-1.769-1.828-2.651-4.347-2.651-7.555
		c0-3.293,0.82-5.883,2.46-7.766c1.641-1.884,3.895-2.826,6.763-2.826c2.662,0,4.764,0.809,6.308,2.425
		c1.543,1.615,2.315,3.841,2.315,6.672v2.315h-13.435c0.061,1.956,0.59,3.46,1.585,4.512c0.997,1.051,2.4,1.577,4.211,1.577
		c1.191,0,2.301-0.113,3.327-0.338c1.026-0.224,2.13-0.598,3.309-1.121v3.481c-1.045,0.499-2.103,0.851-3.172,1.058
		C180.284,109.959,179.062,110.062,177.69,110.062z M176.905,92.417c-1.36,0-2.451,0.432-3.271,1.295
		c-0.819,0.862-1.311,2.12-1.468,3.772h9.152c-0.024-1.664-0.426-2.925-1.203-3.782C179.337,92.846,178.266,92.417,176.905,92.417z"
		/>
	<path fill="#FFFFFF" d="M197.194,110.062c-2.516,0-4.478-0.911-5.887-2.734c-1.411-1.822-2.116-4.381-2.116-7.674
		c0-3.306,0.714-5.879,2.143-7.721c1.428-1.84,3.406-2.762,5.933-2.762c2.651,0,4.669,0.979,6.054,2.936h0.218
		c-0.206-1.446-0.309-2.589-0.309-3.428v-7.346h4.302v28.363h-3.355l-0.747-2.643h-0.199
		C201.855,109.06,199.844,110.062,197.194,110.062z M198.344,106.6c1.762,0,3.044-0.496,3.846-1.486
		c0.803-0.99,1.215-2.598,1.239-4.821v-0.601c0-2.541-0.413-4.346-1.239-5.415c-0.827-1.069-2.121-1.604-3.883-1.604
		c-1.508,0-2.668,0.61-3.481,1.833c-0.814,1.22-1.221,2.962-1.221,5.223c0,2.235,0.395,3.94,1.184,5.112
		C195.579,106.013,196.764,106.6,198.344,106.6z"/>
	<path fill="#FFFFFF" d="M213.399,84.195c0-0.765,0.211-1.354,0.63-1.769c0.42-0.412,1.017-0.619,1.796-0.619
		c0.752,0,1.34,0.207,1.758,0.619c0.421,0.414,0.63,1.004,0.63,1.769c0,0.729-0.209,1.304-0.63,1.723
		c-0.418,0.42-1.006,0.63-1.758,0.63c-0.779,0-1.376-0.21-1.796-0.63C213.61,85.499,213.399,84.925,213.399,84.195z
		 M217.938,109.697h-4.283v-20.16h4.283V109.697z"/>
	<path fill="#FFFFFF" d="M236.679,109.697l-0.857-2.807h-0.145c-0.974,1.228-1.951,2.062-2.936,2.506
		c-0.985,0.444-2.248,0.666-3.792,0.666c-1.981,0-3.526-0.534-4.639-1.604c-1.112-1.068-1.668-2.583-1.668-4.539
		c0-2.077,0.771-3.646,2.314-4.703c1.545-1.057,3.895-1.634,7.055-1.731l3.482-0.109V96.3c0-1.288-0.301-2.251-0.902-2.889
		c-0.603-0.638-1.535-0.957-2.799-0.957c-1.032,0-2.023,0.151-2.971,0.455c-0.948,0.303-1.86,0.662-2.734,1.075l-1.385-3.062
		c1.094-0.57,2.289-1.006,3.59-1.303c1.302-0.298,2.527-0.447,3.682-0.447c2.565,0,4.501,0.56,5.807,1.677
		c1.307,1.119,1.959,2.875,1.959,5.27v13.579H236.679z M230.299,106.781c1.555,0,2.804-0.435,3.745-1.304
		c0.942-0.867,1.413-2.087,1.413-3.654v-1.75l-2.588,0.109c-2.018,0.073-3.485,0.41-4.402,1.012
		c-0.919,0.602-1.377,1.521-1.377,2.762c0,0.899,0.268,1.595,0.803,2.087C228.427,106.535,229.229,106.781,230.299,106.781z"/>
</g>
</svg>
